<mxfile host="app.diagrams.net" modified="2024-05-30T15:28:42.428Z" agent="Mozilla/5.0 (Windows NT 10.0; Win64; x64) AppleWebKit/537.36 (KHTML, like Gecko) Chrome/125.0.0.0 Safari/537.36" etag="iqWm2BOouSjlZeg6TEXv" version="24.4.10" type="github">
  <diagram id="R2lEEEUBdFMjLlhIrx00" name="Page-1">
    <mxGraphModel dx="600" dy="659" grid="1" gridSize="10" guides="1" tooltips="1" connect="1" arrows="1" fold="1" page="1" pageScale="1" pageWidth="850" pageHeight="1100" math="0" shadow="0" extFonts="Permanent Marker^https://fonts.googleapis.com/css?family=Permanent+Marker">
      <root>
        <mxCell id="0" />
        <mxCell id="1" parent="0" />
        <mxCell id="JSy1UCkvhQyhgqFXAEeJ-131" value="Product" style="swimlane;childLayout=stackLayout;horizontal=1;startSize=50;horizontalStack=0;rounded=1;fontSize=14;fontStyle=0;strokeWidth=2;resizeParent=0;resizeLast=1;shadow=0;dashed=0;align=center;arcSize=4;whiteSpace=wrap;html=1;" vertex="1" parent="1">
          <mxGeometry x="250" y="420" width="160" height="120" as="geometry" />
        </mxCell>
        <mxCell id="JSy1UCkvhQyhgqFXAEeJ-132" value="productid&lt;div&gt;name&lt;/div&gt;&lt;div&gt;price&lt;/div&gt;" style="align=left;strokeColor=none;fillColor=none;spacingLeft=4;fontSize=12;verticalAlign=top;resizable=0;rotatable=0;part=1;html=1;" vertex="1" parent="JSy1UCkvhQyhgqFXAEeJ-131">
          <mxGeometry y="50" width="160" height="70" as="geometry" />
        </mxCell>
        <mxCell id="JSy1UCkvhQyhgqFXAEeJ-133" value="Buyer" style="swimlane;childLayout=stackLayout;horizontal=1;startSize=40;horizontalStack=0;rounded=1;fontSize=14;fontStyle=0;strokeWidth=2;resizeParent=0;resizeLast=1;shadow=0;dashed=0;align=center;arcSize=4;whiteSpace=wrap;html=1;" vertex="1" parent="1">
          <mxGeometry x="640" y="380" width="160" height="120" as="geometry" />
        </mxCell>
        <mxCell id="JSy1UCkvhQyhgqFXAEeJ-134" value="buyerid&lt;div&gt;name&lt;/div&gt;&lt;div&gt;address&lt;/div&gt;" style="align=left;strokeColor=none;fillColor=none;spacingLeft=4;fontSize=12;verticalAlign=top;resizable=0;rotatable=0;part=1;html=1;" vertex="1" parent="JSy1UCkvhQyhgqFXAEeJ-133">
          <mxGeometry y="40" width="160" height="80" as="geometry" />
        </mxCell>
        <mxCell id="JSy1UCkvhQyhgqFXAEeJ-135" value="Setting" style="swimlane;childLayout=stackLayout;horizontal=1;startSize=50;horizontalStack=0;rounded=1;fontSize=14;fontStyle=0;strokeWidth=2;resizeParent=0;resizeLast=1;shadow=0;dashed=0;align=center;arcSize=4;whiteSpace=wrap;html=1;" vertex="1" parent="1">
          <mxGeometry x="1000" y="380" width="160" height="120" as="geometry" />
        </mxCell>
        <mxCell id="JSy1UCkvhQyhgqFXAEeJ-136" value="settingid&lt;div&gt;name&lt;/div&gt;&lt;div&gt;value&lt;/div&gt;" style="align=left;strokeColor=none;fillColor=none;spacingLeft=4;fontSize=12;verticalAlign=top;resizable=0;rotatable=0;part=1;html=1;" vertex="1" parent="JSy1UCkvhQyhgqFXAEeJ-135">
          <mxGeometry y="50" width="160" height="70" as="geometry" />
        </mxCell>
        <mxCell id="JSy1UCkvhQyhgqFXAEeJ-137" value="Report" style="swimlane;childLayout=stackLayout;horizontal=1;startSize=50;horizontalStack=0;rounded=1;fontSize=14;fontStyle=0;strokeWidth=2;resizeParent=0;resizeLast=1;shadow=0;dashed=0;align=center;arcSize=4;whiteSpace=wrap;html=1;" vertex="1" parent="1">
          <mxGeometry x="1000" y="170" width="160" height="120" as="geometry" />
        </mxCell>
        <mxCell id="JSy1UCkvhQyhgqFXAEeJ-138" value="reportid&lt;div&gt;content&lt;/div&gt;" style="align=left;strokeColor=none;fillColor=none;spacingLeft=4;fontSize=12;verticalAlign=top;resizable=0;rotatable=0;part=1;html=1;" vertex="1" parent="JSy1UCkvhQyhgqFXAEeJ-137">
          <mxGeometry y="50" width="160" height="70" as="geometry" />
        </mxCell>
        <mxCell id="JSy1UCkvhQyhgqFXAEeJ-139" value="Transaction" style="swimlane;childLayout=stackLayout;horizontal=1;startSize=50;horizontalStack=0;rounded=1;fontSize=14;fontStyle=0;strokeWidth=2;resizeParent=0;resizeLast=1;shadow=0;dashed=0;align=center;arcSize=4;whiteSpace=wrap;html=1;" vertex="1" parent="1">
          <mxGeometry x="1010" y="640" width="160" height="120" as="geometry" />
        </mxCell>
        <mxCell id="JSy1UCkvhQyhgqFXAEeJ-140" value="transactionid&lt;div&gt;amount&lt;/div&gt;&lt;div&gt;transactiondate&lt;/div&gt;" style="align=left;strokeColor=none;fillColor=none;spacingLeft=4;fontSize=12;verticalAlign=top;resizable=0;rotatable=0;part=1;html=1;" vertex="1" parent="JSy1UCkvhQyhgqFXAEeJ-139">
          <mxGeometry y="50" width="160" height="70" as="geometry" />
        </mxCell>
        <mxCell id="JSy1UCkvhQyhgqFXAEeJ-141" value="Review" style="swimlane;childLayout=stackLayout;horizontal=1;startSize=50;horizontalStack=0;rounded=1;fontSize=14;fontStyle=0;strokeWidth=2;resizeParent=0;resizeLast=1;shadow=0;dashed=0;align=center;arcSize=4;whiteSpace=wrap;html=1;" vertex="1" parent="1">
          <mxGeometry x="650" y="650" width="160" height="120" as="geometry" />
        </mxCell>
        <mxCell id="JSy1UCkvhQyhgqFXAEeJ-142" value="reviewid&lt;div&gt;comment&lt;/div&gt;&lt;div&gt;rating&lt;/div&gt;" style="align=left;strokeColor=none;fillColor=none;spacingLeft=4;fontSize=12;verticalAlign=top;resizable=0;rotatable=0;part=1;html=1;" vertex="1" parent="JSy1UCkvhQyhgqFXAEeJ-141">
          <mxGeometry y="50" width="160" height="70" as="geometry" />
        </mxCell>
        <mxCell id="JSy1UCkvhQyhgqFXAEeJ-143" value="Delivery" style="swimlane;childLayout=stackLayout;horizontal=1;startSize=50;horizontalStack=0;rounded=1;fontSize=14;fontStyle=0;strokeWidth=2;resizeParent=0;resizeLast=1;shadow=0;dashed=0;align=center;arcSize=4;whiteSpace=wrap;html=1;" vertex="1" parent="1">
          <mxGeometry x="440" y="860" width="160" height="120" as="geometry" />
        </mxCell>
        <mxCell id="JSy1UCkvhQyhgqFXAEeJ-144" value="Deliveryid&lt;div&gt;deliverydate&lt;/div&gt;" style="align=left;strokeColor=none;fillColor=none;spacingLeft=4;fontSize=12;verticalAlign=top;resizable=0;rotatable=0;part=1;html=1;" vertex="1" parent="JSy1UCkvhQyhgqFXAEeJ-143">
          <mxGeometry y="50" width="160" height="70" as="geometry" />
        </mxCell>
        <mxCell id="JSy1UCkvhQyhgqFXAEeJ-145" value="Order" style="swimlane;childLayout=stackLayout;horizontal=1;startSize=40;horizontalStack=0;rounded=1;fontSize=14;fontStyle=0;strokeWidth=2;resizeParent=0;resizeLast=1;shadow=0;dashed=0;align=center;arcSize=4;whiteSpace=wrap;html=1;" vertex="1" parent="1">
          <mxGeometry x="300" y="650" width="160" height="120" as="geometry" />
        </mxCell>
        <mxCell id="JSy1UCkvhQyhgqFXAEeJ-146" value="Orderid&lt;div&gt;status&lt;/div&gt;&lt;div&gt;orderDate&lt;/div&gt;" style="align=left;strokeColor=none;fillColor=none;spacingLeft=4;fontSize=12;verticalAlign=top;resizable=0;rotatable=0;part=1;html=1;" vertex="1" parent="JSy1UCkvhQyhgqFXAEeJ-145">
          <mxGeometry y="40" width="160" height="80" as="geometry" />
        </mxCell>
        <mxCell id="JSy1UCkvhQyhgqFXAEeJ-147" value="Farmer" style="swimlane;childLayout=stackLayout;horizontal=1;startSize=50;horizontalStack=0;rounded=1;fontSize=14;fontStyle=0;strokeWidth=2;resizeParent=0;resizeLast=1;shadow=0;dashed=0;align=center;arcSize=4;whiteSpace=wrap;html=1;" vertex="1" parent="1">
          <mxGeometry x="490" y="160" width="160" height="120" as="geometry" />
        </mxCell>
        <mxCell id="JSy1UCkvhQyhgqFXAEeJ-148" value="farmerid&lt;div&gt;name&lt;/div&gt;&lt;div&gt;location&lt;/div&gt;&lt;div&gt;phonenumber&lt;/div&gt;" style="align=left;strokeColor=none;fillColor=none;spacingLeft=4;fontSize=12;verticalAlign=top;resizable=0;rotatable=0;part=1;html=1;" vertex="1" parent="JSy1UCkvhQyhgqFXAEeJ-147">
          <mxGeometry y="50" width="160" height="70" as="geometry" />
        </mxCell>
        <mxCell id="JSy1UCkvhQyhgqFXAEeJ-149" value="Distributor" style="swimlane;childLayout=stackLayout;horizontal=1;startSize=50;horizontalStack=0;rounded=1;fontSize=14;fontStyle=0;strokeWidth=2;resizeParent=0;resizeLast=1;shadow=0;dashed=0;align=center;arcSize=4;whiteSpace=wrap;html=1;" vertex="1" parent="1">
          <mxGeometry x="140" y="160" width="160" height="120" as="geometry" />
        </mxCell>
        <mxCell id="JSy1UCkvhQyhgqFXAEeJ-150" value="disrtibutorid&lt;div&gt;name&lt;/div&gt;&lt;div&gt;phonenumber&lt;/div&gt;" style="align=left;strokeColor=none;fillColor=none;spacingLeft=4;fontSize=12;verticalAlign=top;resizable=0;rotatable=0;part=1;html=1;" vertex="1" parent="JSy1UCkvhQyhgqFXAEeJ-149">
          <mxGeometry y="50" width="160" height="70" as="geometry" />
        </mxCell>
      </root>
    </mxGraphModel>
  </diagram>
</mxfile>
